<mxfile host="app.diagrams.net" modified="2023-06-07T16:42:42.930Z" agent="Mozilla/5.0 (Windows NT 10.0; Win64; x64) AppleWebKit/537.36 (KHTML, like Gecko) Chrome/114.0.0.0 Safari/537.36 Edg/114.0.1823.37" etag="FsJdNsKtWpl6qAqLsAOT" version="21.3.7" type="github">
  <diagram id="R2lEEEUBdFMjLlhIrx00" name="Page-1">
    <mxGraphModel dx="1459" dy="1219" grid="0" gridSize="10" guides="1" tooltips="1" connect="1" arrows="1" fold="1" page="0" pageScale="1" pageWidth="850" pageHeight="1100" math="0" shadow="0" extFonts="Permanent Marker^https://fonts.googleapis.com/css?family=Permanent+Marker">
      <root>
        <mxCell id="0" />
        <mxCell id="1" parent="0" />
        <mxCell id="ajqtqU7_ZfUQvldOCHn7-199" style="edgeStyle=none;shape=connector;rounded=0;orthogonalLoop=1;jettySize=auto;html=1;exitX=0.5;exitY=1;exitDx=0;exitDy=0;entryX=0.5;entryY=0;entryDx=0;entryDy=0;labelBackgroundColor=default;strokeColor=default;fontFamily=Helvetica;fontSize=12;fontColor=default;endArrow=none;endFill=0;" edge="1" parent="1" source="ajqtqU7_ZfUQvldOCHn7-19" target="ajqtqU7_ZfUQvldOCHn7-20">
          <mxGeometry relative="1" as="geometry" />
        </mxCell>
        <mxCell id="ajqtqU7_ZfUQvldOCHn7-200" style="edgeStyle=none;shape=connector;rounded=0;orthogonalLoop=1;jettySize=auto;html=1;exitX=0.5;exitY=1;exitDx=0;exitDy=0;entryX=0.5;entryY=0;entryDx=0;entryDy=0;labelBackgroundColor=default;strokeColor=default;fontFamily=Helvetica;fontSize=12;fontColor=default;endArrow=none;endFill=0;" edge="1" parent="1" source="ajqtqU7_ZfUQvldOCHn7-19" target="ajqtqU7_ZfUQvldOCHn7-39">
          <mxGeometry relative="1" as="geometry" />
        </mxCell>
        <mxCell id="ajqtqU7_ZfUQvldOCHn7-201" style="edgeStyle=none;shape=connector;rounded=0;orthogonalLoop=1;jettySize=auto;html=1;exitX=0.5;exitY=1;exitDx=0;exitDy=0;entryX=0.5;entryY=0;entryDx=0;entryDy=0;labelBackgroundColor=default;strokeColor=default;fontFamily=Helvetica;fontSize=12;fontColor=default;endArrow=none;endFill=0;" edge="1" parent="1" source="ajqtqU7_ZfUQvldOCHn7-19" target="ajqtqU7_ZfUQvldOCHn7-41">
          <mxGeometry relative="1" as="geometry" />
        </mxCell>
        <mxCell id="ajqtqU7_ZfUQvldOCHn7-202" style="edgeStyle=none;shape=connector;rounded=0;orthogonalLoop=1;jettySize=auto;html=1;exitX=0.5;exitY=1;exitDx=0;exitDy=0;entryX=0.5;entryY=0;entryDx=0;entryDy=0;labelBackgroundColor=default;strokeColor=default;fontFamily=Helvetica;fontSize=12;fontColor=default;endArrow=none;endFill=0;" edge="1" parent="1" source="ajqtqU7_ZfUQvldOCHn7-19" target="ajqtqU7_ZfUQvldOCHn7-44">
          <mxGeometry relative="1" as="geometry" />
        </mxCell>
        <mxCell id="ajqtqU7_ZfUQvldOCHn7-203" style="edgeStyle=none;shape=connector;rounded=0;orthogonalLoop=1;jettySize=auto;html=1;exitX=0.5;exitY=1;exitDx=0;exitDy=0;entryX=0.5;entryY=0;entryDx=0;entryDy=0;labelBackgroundColor=default;strokeColor=default;fontFamily=Helvetica;fontSize=12;fontColor=default;endArrow=none;endFill=0;" edge="1" parent="1" source="ajqtqU7_ZfUQvldOCHn7-19" target="ajqtqU7_ZfUQvldOCHn7-46">
          <mxGeometry relative="1" as="geometry" />
        </mxCell>
        <mxCell id="ajqtqU7_ZfUQvldOCHn7-204" style="edgeStyle=none;shape=connector;rounded=0;orthogonalLoop=1;jettySize=auto;html=1;exitX=0.5;exitY=1;exitDx=0;exitDy=0;entryX=0.5;entryY=0;entryDx=0;entryDy=0;labelBackgroundColor=default;strokeColor=default;fontFamily=Helvetica;fontSize=12;fontColor=default;endArrow=none;endFill=0;" edge="1" parent="1" source="ajqtqU7_ZfUQvldOCHn7-19" target="ajqtqU7_ZfUQvldOCHn7-48">
          <mxGeometry relative="1" as="geometry" />
        </mxCell>
        <mxCell id="ajqtqU7_ZfUQvldOCHn7-205" style="edgeStyle=none;shape=connector;rounded=0;orthogonalLoop=1;jettySize=auto;html=1;exitX=0.5;exitY=1;exitDx=0;exitDy=0;entryX=0.5;entryY=0;entryDx=0;entryDy=0;labelBackgroundColor=default;strokeColor=default;fontFamily=Helvetica;fontSize=12;fontColor=default;endArrow=none;endFill=0;" edge="1" parent="1" source="ajqtqU7_ZfUQvldOCHn7-19" target="ajqtqU7_ZfUQvldOCHn7-50">
          <mxGeometry relative="1" as="geometry" />
        </mxCell>
        <mxCell id="ajqtqU7_ZfUQvldOCHn7-206" style="edgeStyle=none;shape=connector;rounded=0;orthogonalLoop=1;jettySize=auto;html=1;exitX=0.5;exitY=1;exitDx=0;exitDy=0;entryX=0.5;entryY=0;entryDx=0;entryDy=0;labelBackgroundColor=default;strokeColor=default;fontFamily=Helvetica;fontSize=12;fontColor=default;endArrow=none;endFill=0;" edge="1" parent="1" source="ajqtqU7_ZfUQvldOCHn7-19" target="ajqtqU7_ZfUQvldOCHn7-52">
          <mxGeometry relative="1" as="geometry" />
        </mxCell>
        <mxCell id="ajqtqU7_ZfUQvldOCHn7-19" value="employee" style="whiteSpace=wrap;html=1;align=center;" vertex="1" parent="1">
          <mxGeometry x="760" y="485" width="180" height="70" as="geometry" />
        </mxCell>
        <mxCell id="ajqtqU7_ZfUQvldOCHn7-20" value="id" style="ellipse;whiteSpace=wrap;html=1;align=center;fontStyle=4;" vertex="1" parent="1">
          <mxGeometry x="500" y="640" width="70" height="40" as="geometry" />
        </mxCell>
        <mxCell id="ajqtqU7_ZfUQvldOCHn7-39" value="name" style="ellipse;whiteSpace=wrap;html=1;" vertex="1" parent="1">
          <mxGeometry x="580" y="640" width="70" height="40" as="geometry" />
        </mxCell>
        <mxCell id="ajqtqU7_ZfUQvldOCHn7-41" value="username" style="ellipse;whiteSpace=wrap;html=1;" vertex="1" parent="1">
          <mxGeometry x="660" y="640" width="70" height="40" as="geometry" />
        </mxCell>
        <mxCell id="ajqtqU7_ZfUQvldOCHn7-44" value="password" style="ellipse;whiteSpace=wrap;html=1;" vertex="1" parent="1">
          <mxGeometry x="740" y="640" width="70" height="40" as="geometry" />
        </mxCell>
        <mxCell id="ajqtqU7_ZfUQvldOCHn7-46" value="phone" style="ellipse;whiteSpace=wrap;html=1;" vertex="1" parent="1">
          <mxGeometry x="820" y="640" width="70" height="40" as="geometry" />
        </mxCell>
        <mxCell id="ajqtqU7_ZfUQvldOCHn7-48" value="sex" style="ellipse;whiteSpace=wrap;html=1;" vertex="1" parent="1">
          <mxGeometry x="900" y="640" width="70" height="40" as="geometry" />
        </mxCell>
        <mxCell id="ajqtqU7_ZfUQvldOCHn7-50" value="id_number" style="ellipse;whiteSpace=wrap;html=1;" vertex="1" parent="1">
          <mxGeometry x="975" y="640" width="70" height="40" as="geometry" />
        </mxCell>
        <mxCell id="ajqtqU7_ZfUQvldOCHn7-52" value="status" style="ellipse;whiteSpace=wrap;html=1;" vertex="1" parent="1">
          <mxGeometry x="1050" y="640" width="70" height="40" as="geometry" />
        </mxCell>
        <mxCell id="ajqtqU7_ZfUQvldOCHn7-156" style="edgeStyle=none;shape=connector;rounded=0;orthogonalLoop=1;jettySize=auto;html=1;exitX=0.5;exitY=0;exitDx=0;exitDy=0;labelBackgroundColor=default;strokeColor=default;fontFamily=Helvetica;fontSize=12;fontColor=default;endArrow=none;endFill=0;entryX=0.5;entryY=1;entryDx=0;entryDy=0;" edge="1" parent="1" source="ajqtqU7_ZfUQvldOCHn7-54" target="ajqtqU7_ZfUQvldOCHn7-62">
          <mxGeometry relative="1" as="geometry">
            <mxPoint x="1395" y="23.5" as="targetPoint" />
          </mxGeometry>
        </mxCell>
        <mxCell id="ajqtqU7_ZfUQvldOCHn7-157" style="edgeStyle=none;shape=connector;rounded=0;orthogonalLoop=1;jettySize=auto;html=1;exitX=0.5;exitY=0;exitDx=0;exitDy=0;entryX=0.5;entryY=1;entryDx=0;entryDy=0;labelBackgroundColor=default;strokeColor=default;fontFamily=Helvetica;fontSize=12;fontColor=default;endArrow=none;endFill=0;" edge="1" parent="1" source="ajqtqU7_ZfUQvldOCHn7-54" target="ajqtqU7_ZfUQvldOCHn7-55">
          <mxGeometry relative="1" as="geometry" />
        </mxCell>
        <mxCell id="ajqtqU7_ZfUQvldOCHn7-159" style="edgeStyle=none;shape=connector;rounded=0;orthogonalLoop=1;jettySize=auto;html=1;exitX=0.5;exitY=0;exitDx=0;exitDy=0;entryX=0.5;entryY=1;entryDx=0;entryDy=0;labelBackgroundColor=default;strokeColor=default;fontFamily=Helvetica;fontSize=12;fontColor=default;endArrow=none;endFill=0;" edge="1" parent="1" source="ajqtqU7_ZfUQvldOCHn7-54" target="ajqtqU7_ZfUQvldOCHn7-58">
          <mxGeometry relative="1" as="geometry" />
        </mxCell>
        <mxCell id="ajqtqU7_ZfUQvldOCHn7-160" style="edgeStyle=none;shape=connector;rounded=0;orthogonalLoop=1;jettySize=auto;html=1;exitX=0.5;exitY=0;exitDx=0;exitDy=0;entryX=0.5;entryY=1;entryDx=0;entryDy=0;labelBackgroundColor=default;strokeColor=default;fontFamily=Helvetica;fontSize=12;fontColor=default;endArrow=none;endFill=0;" edge="1" parent="1" source="ajqtqU7_ZfUQvldOCHn7-54" target="ajqtqU7_ZfUQvldOCHn7-59">
          <mxGeometry relative="1" as="geometry" />
        </mxCell>
        <mxCell id="ajqtqU7_ZfUQvldOCHn7-54" value="dish" style="rounded=0;whiteSpace=wrap;html=1;" vertex="1" parent="1">
          <mxGeometry x="760" y="110" width="180" height="70" as="geometry" />
        </mxCell>
        <mxCell id="ajqtqU7_ZfUQvldOCHn7-55" value="name" style="ellipse;whiteSpace=wrap;html=1;" vertex="1" parent="1">
          <mxGeometry x="955" y="-16.5" width="70" height="40" as="geometry" />
        </mxCell>
        <mxCell id="ajqtqU7_ZfUQvldOCHn7-163" style="edgeStyle=none;shape=connector;rounded=0;orthogonalLoop=1;jettySize=auto;html=1;exitX=0.5;exitY=1;exitDx=0;exitDy=0;entryX=0.5;entryY=0;entryDx=0;entryDy=0;labelBackgroundColor=default;strokeColor=default;fontFamily=Helvetica;fontSize=12;fontColor=default;endArrow=none;endFill=0;" edge="1" parent="1" source="ajqtqU7_ZfUQvldOCHn7-56" target="ajqtqU7_ZfUQvldOCHn7-54">
          <mxGeometry relative="1" as="geometry" />
        </mxCell>
        <mxCell id="ajqtqU7_ZfUQvldOCHn7-56" value="id" style="ellipse;whiteSpace=wrap;html=1;align=center;fontStyle=4;" vertex="1" parent="1">
          <mxGeometry x="565" y="-16.5" width="70" height="40" as="geometry" />
        </mxCell>
        <mxCell id="ajqtqU7_ZfUQvldOCHn7-58" value="price" style="ellipse;whiteSpace=wrap;html=1;" vertex="1" parent="1">
          <mxGeometry x="880" y="-16.5" width="70" height="40" as="geometry" />
        </mxCell>
        <mxCell id="ajqtqU7_ZfUQvldOCHn7-59" value="image" style="ellipse;whiteSpace=wrap;html=1;" vertex="1" parent="1">
          <mxGeometry x="805" y="-16.5" width="70" height="40" as="geometry" />
        </mxCell>
        <mxCell id="ajqtqU7_ZfUQvldOCHn7-161" style="edgeStyle=none;shape=connector;rounded=0;orthogonalLoop=1;jettySize=auto;html=1;exitX=0.5;exitY=1;exitDx=0;exitDy=0;entryX=0.5;entryY=0;entryDx=0;entryDy=0;labelBackgroundColor=default;strokeColor=default;fontFamily=Helvetica;fontSize=12;fontColor=default;endArrow=none;endFill=0;" edge="1" parent="1" source="ajqtqU7_ZfUQvldOCHn7-60" target="ajqtqU7_ZfUQvldOCHn7-54">
          <mxGeometry relative="1" as="geometry" />
        </mxCell>
        <mxCell id="ajqtqU7_ZfUQvldOCHn7-60" value="description" style="ellipse;whiteSpace=wrap;html=1;" vertex="1" parent="1">
          <mxGeometry x="725" y="-16.5" width="70" height="40" as="geometry" />
        </mxCell>
        <mxCell id="ajqtqU7_ZfUQvldOCHn7-162" style="edgeStyle=none;shape=connector;rounded=0;orthogonalLoop=1;jettySize=auto;html=1;exitX=1;exitY=0.5;exitDx=0;exitDy=0;entryX=0.5;entryY=0;entryDx=0;entryDy=0;labelBackgroundColor=default;strokeColor=default;fontFamily=Helvetica;fontSize=12;fontColor=default;endArrow=none;endFill=0;" edge="1" parent="1" source="ajqtqU7_ZfUQvldOCHn7-61" target="ajqtqU7_ZfUQvldOCHn7-54">
          <mxGeometry relative="1" as="geometry" />
        </mxCell>
        <mxCell id="ajqtqU7_ZfUQvldOCHn7-61" value="status" style="ellipse;whiteSpace=wrap;html=1;" vertex="1" parent="1">
          <mxGeometry x="645" y="-16.5" width="70" height="40" as="geometry" />
        </mxCell>
        <mxCell id="ajqtqU7_ZfUQvldOCHn7-62" value="sort" style="ellipse;whiteSpace=wrap;html=1;" vertex="1" parent="1">
          <mxGeometry x="1035" y="-16.5" width="70" height="40" as="geometry" />
        </mxCell>
        <mxCell id="ajqtqU7_ZfUQvldOCHn7-71" value="dish_flavor" style="rounded=0;whiteSpace=wrap;html=1;" vertex="1" parent="1">
          <mxGeometry x="430" y="110" width="180" height="70" as="geometry" />
        </mxCell>
        <mxCell id="ajqtqU7_ZfUQvldOCHn7-72" value="id" style="ellipse;whiteSpace=wrap;html=1;align=center;fontStyle=4;" vertex="1" parent="1">
          <mxGeometry x="400" y="225" width="70" height="40" as="geometry" />
        </mxCell>
        <mxCell id="ajqtqU7_ZfUQvldOCHn7-75" value="value" style="ellipse;whiteSpace=wrap;html=1;" vertex="1" parent="1">
          <mxGeometry x="560" y="225" width="70" height="40" as="geometry" />
        </mxCell>
        <mxCell id="ajqtqU7_ZfUQvldOCHn7-76" value="name" style="ellipse;whiteSpace=wrap;html=1;" vertex="1" parent="1">
          <mxGeometry x="480" y="225" width="70" height="40" as="geometry" />
        </mxCell>
        <mxCell id="ajqtqU7_ZfUQvldOCHn7-77" value="" style="endArrow=none;html=1;rounded=0;exitX=0.5;exitY=0;exitDx=0;exitDy=0;entryX=0.5;entryY=1;entryDx=0;entryDy=0;" edge="1" parent="1" source="ajqtqU7_ZfUQvldOCHn7-72" target="ajqtqU7_ZfUQvldOCHn7-71">
          <mxGeometry width="50" height="50" relative="1" as="geometry">
            <mxPoint x="660" y="-70" as="sourcePoint" />
            <mxPoint x="710" y="-120" as="targetPoint" />
          </mxGeometry>
        </mxCell>
        <mxCell id="ajqtqU7_ZfUQvldOCHn7-79" value="" style="endArrow=none;html=1;rounded=0;exitX=0.5;exitY=0;exitDx=0;exitDy=0;entryX=0.5;entryY=1;entryDx=0;entryDy=0;" edge="1" parent="1" source="ajqtqU7_ZfUQvldOCHn7-76" target="ajqtqU7_ZfUQvldOCHn7-71">
          <mxGeometry width="50" height="50" relative="1" as="geometry">
            <mxPoint x="660" y="15" as="sourcePoint" />
            <mxPoint x="710" y="-35" as="targetPoint" />
          </mxGeometry>
        </mxCell>
        <mxCell id="ajqtqU7_ZfUQvldOCHn7-80" value="" style="endArrow=none;html=1;rounded=0;exitX=0.5;exitY=0;exitDx=0;exitDy=0;entryX=0.5;entryY=1;entryDx=0;entryDy=0;" edge="1" parent="1" source="ajqtqU7_ZfUQvldOCHn7-75" target="ajqtqU7_ZfUQvldOCHn7-71">
          <mxGeometry width="50" height="50" relative="1" as="geometry">
            <mxPoint x="660" y="15" as="sourcePoint" />
            <mxPoint x="710" y="-35" as="targetPoint" />
          </mxGeometry>
        </mxCell>
        <mxCell id="ajqtqU7_ZfUQvldOCHn7-194" style="edgeStyle=none;shape=connector;rounded=0;orthogonalLoop=1;jettySize=auto;html=1;exitX=1;exitY=0.5;exitDx=0;exitDy=0;entryX=0;entryY=0.5;entryDx=0;entryDy=0;labelBackgroundColor=default;strokeColor=default;fontFamily=Helvetica;fontSize=12;fontColor=default;endArrow=none;endFill=0;" edge="1" parent="1" source="ajqtqU7_ZfUQvldOCHn7-81" target="ajqtqU7_ZfUQvldOCHn7-54">
          <mxGeometry relative="1" as="geometry" />
        </mxCell>
        <mxCell id="ajqtqU7_ZfUQvldOCHn7-195" style="edgeStyle=none;shape=connector;rounded=0;orthogonalLoop=1;jettySize=auto;html=1;exitX=0;exitY=0.5;exitDx=0;exitDy=0;entryX=1;entryY=0.5;entryDx=0;entryDy=0;labelBackgroundColor=default;strokeColor=default;fontFamily=Helvetica;fontSize=12;fontColor=default;endArrow=none;endFill=0;" edge="1" parent="1" source="ajqtqU7_ZfUQvldOCHn7-81" target="ajqtqU7_ZfUQvldOCHn7-71">
          <mxGeometry relative="1" as="geometry" />
        </mxCell>
        <mxCell id="ajqtqU7_ZfUQvldOCHn7-81" value="口味" style="rhombus;whiteSpace=wrap;html=1;" vertex="1" parent="1">
          <mxGeometry x="645" y="120" width="75" height="50" as="geometry" />
        </mxCell>
        <mxCell id="ajqtqU7_ZfUQvldOCHn7-179" style="edgeStyle=none;shape=connector;rounded=0;orthogonalLoop=1;jettySize=auto;html=1;exitX=1;exitY=0.5;exitDx=0;exitDy=0;entryX=0;entryY=0.5;entryDx=0;entryDy=0;labelBackgroundColor=default;strokeColor=default;fontFamily=Helvetica;fontSize=12;fontColor=default;endArrow=none;endFill=0;" edge="1" parent="1" source="ajqtqU7_ZfUQvldOCHn7-86" target="ajqtqU7_ZfUQvldOCHn7-87">
          <mxGeometry relative="1" as="geometry" />
        </mxCell>
        <mxCell id="ajqtqU7_ZfUQvldOCHn7-180" style="edgeStyle=none;shape=connector;rounded=0;orthogonalLoop=1;jettySize=auto;html=1;exitX=1;exitY=0.5;exitDx=0;exitDy=0;entryX=0;entryY=0.5;entryDx=0;entryDy=0;labelBackgroundColor=default;strokeColor=default;fontFamily=Helvetica;fontSize=12;fontColor=default;endArrow=none;endFill=0;" edge="1" parent="1" source="ajqtqU7_ZfUQvldOCHn7-86" target="ajqtqU7_ZfUQvldOCHn7-91">
          <mxGeometry relative="1" as="geometry" />
        </mxCell>
        <mxCell id="ajqtqU7_ZfUQvldOCHn7-181" style="edgeStyle=none;shape=connector;rounded=0;orthogonalLoop=1;jettySize=auto;html=1;exitX=1;exitY=0.5;exitDx=0;exitDy=0;entryX=0;entryY=0.5;entryDx=0;entryDy=0;labelBackgroundColor=default;strokeColor=default;fontFamily=Helvetica;fontSize=12;fontColor=default;endArrow=none;endFill=0;" edge="1" parent="1" source="ajqtqU7_ZfUQvldOCHn7-86" target="ajqtqU7_ZfUQvldOCHn7-92">
          <mxGeometry relative="1" as="geometry" />
        </mxCell>
        <mxCell id="ajqtqU7_ZfUQvldOCHn7-182" style="edgeStyle=none;shape=connector;rounded=0;orthogonalLoop=1;jettySize=auto;html=1;exitX=1;exitY=0.5;exitDx=0;exitDy=0;entryX=0;entryY=0.5;entryDx=0;entryDy=0;labelBackgroundColor=default;strokeColor=default;fontFamily=Helvetica;fontSize=12;fontColor=default;endArrow=none;endFill=0;" edge="1" parent="1" source="ajqtqU7_ZfUQvldOCHn7-86" target="ajqtqU7_ZfUQvldOCHn7-90">
          <mxGeometry relative="1" as="geometry" />
        </mxCell>
        <mxCell id="ajqtqU7_ZfUQvldOCHn7-86" value="category" style="rounded=0;whiteSpace=wrap;html=1;" vertex="1" parent="1">
          <mxGeometry x="1070" y="110" width="180" height="70" as="geometry" />
        </mxCell>
        <mxCell id="ajqtqU7_ZfUQvldOCHn7-87" value="id" style="ellipse;whiteSpace=wrap;html=1;align=center;fontStyle=4;" vertex="1" parent="1">
          <mxGeometry x="1290" y="-40" width="70" height="40" as="geometry" />
        </mxCell>
        <mxCell id="ajqtqU7_ZfUQvldOCHn7-90" value="sort" style="ellipse;whiteSpace=wrap;html=1;" vertex="1" parent="1">
          <mxGeometry x="1290" y="110" width="70" height="40" as="geometry" />
        </mxCell>
        <mxCell id="ajqtqU7_ZfUQvldOCHn7-91" value="name" style="ellipse;whiteSpace=wrap;html=1;" vertex="1" parent="1">
          <mxGeometry x="1290" y="10" width="70" height="40" as="geometry" />
        </mxCell>
        <mxCell id="ajqtqU7_ZfUQvldOCHn7-92" value="type" style="ellipse;whiteSpace=wrap;html=1;" vertex="1" parent="1">
          <mxGeometry x="1290" y="60" width="70" height="40" as="geometry" />
        </mxCell>
        <mxCell id="ajqtqU7_ZfUQvldOCHn7-185" style="edgeStyle=none;shape=connector;rounded=0;orthogonalLoop=1;jettySize=auto;html=1;exitX=1;exitY=0.5;exitDx=0;exitDy=0;entryX=0;entryY=0.5;entryDx=0;entryDy=0;labelBackgroundColor=default;strokeColor=default;fontFamily=Helvetica;fontSize=12;fontColor=default;endArrow=none;endFill=0;" edge="1" parent="1" source="ajqtqU7_ZfUQvldOCHn7-97" target="ajqtqU7_ZfUQvldOCHn7-86">
          <mxGeometry relative="1" as="geometry" />
        </mxCell>
        <mxCell id="ajqtqU7_ZfUQvldOCHn7-186" style="edgeStyle=none;shape=connector;rounded=0;orthogonalLoop=1;jettySize=auto;html=1;exitX=0;exitY=0.5;exitDx=0;exitDy=0;entryX=1;entryY=0.5;entryDx=0;entryDy=0;labelBackgroundColor=default;strokeColor=default;fontFamily=Helvetica;fontSize=12;fontColor=default;endArrow=none;endFill=0;" edge="1" parent="1" source="ajqtqU7_ZfUQvldOCHn7-97" target="ajqtqU7_ZfUQvldOCHn7-54">
          <mxGeometry relative="1" as="geometry" />
        </mxCell>
        <mxCell id="ajqtqU7_ZfUQvldOCHn7-97" value="种类1" style="rhombus;whiteSpace=wrap;html=1;" vertex="1" parent="1">
          <mxGeometry x="975" y="115" width="70" height="60" as="geometry" />
        </mxCell>
        <mxCell id="ajqtqU7_ZfUQvldOCHn7-155" style="edgeStyle=none;shape=connector;rounded=0;orthogonalLoop=1;jettySize=auto;html=1;exitX=0;exitY=0.5;exitDx=0;exitDy=0;entryX=0.795;entryY=0.514;entryDx=0;entryDy=0;entryPerimeter=0;labelBackgroundColor=default;strokeColor=default;fontFamily=Helvetica;fontSize=12;fontColor=default;endArrow=none;endFill=0;" edge="1" parent="1" source="ajqtqU7_ZfUQvldOCHn7-102" target="ajqtqU7_ZfUQvldOCHn7-138">
          <mxGeometry relative="1" as="geometry" />
        </mxCell>
        <mxCell id="ajqtqU7_ZfUQvldOCHn7-102" value="setmeal" style="rounded=0;whiteSpace=wrap;html=1;" vertex="1" parent="1">
          <mxGeometry x="1070" y="305" width="180" height="70" as="geometry" />
        </mxCell>
        <mxCell id="ajqtqU7_ZfUQvldOCHn7-103" value="id" style="ellipse;whiteSpace=wrap;html=1;align=center;fontStyle=4;" vertex="1" parent="1">
          <mxGeometry x="1290" y="190" width="70" height="40" as="geometry" />
        </mxCell>
        <mxCell id="ajqtqU7_ZfUQvldOCHn7-104" value="category_id" style="ellipse;whiteSpace=wrap;html=1;" vertex="1" parent="1">
          <mxGeometry x="1290" y="250" width="70" height="40" as="geometry" />
        </mxCell>
        <mxCell id="ajqtqU7_ZfUQvldOCHn7-105" value="name" style="ellipse;whiteSpace=wrap;html=1;" vertex="1" parent="1">
          <mxGeometry x="1290" y="298" width="70" height="40" as="geometry" />
        </mxCell>
        <mxCell id="ajqtqU7_ZfUQvldOCHn7-106" value="price" style="ellipse;whiteSpace=wrap;html=1;" vertex="1" parent="1">
          <mxGeometry x="1290" y="350" width="70" height="40" as="geometry" />
        </mxCell>
        <mxCell id="ajqtqU7_ZfUQvldOCHn7-107" value="status" style="ellipse;whiteSpace=wrap;html=1;" vertex="1" parent="1">
          <mxGeometry x="1290" y="400" width="70" height="40" as="geometry" />
        </mxCell>
        <mxCell id="ajqtqU7_ZfUQvldOCHn7-108" value="description" style="ellipse;whiteSpace=wrap;html=1;" vertex="1" parent="1">
          <mxGeometry x="1290" y="445" width="70" height="40" as="geometry" />
        </mxCell>
        <mxCell id="ajqtqU7_ZfUQvldOCHn7-109" value="image" style="ellipse;whiteSpace=wrap;html=1;" vertex="1" parent="1">
          <mxGeometry x="1290" y="490" width="70" height="40" as="geometry" />
        </mxCell>
        <mxCell id="ajqtqU7_ZfUQvldOCHn7-110" value="" style="endArrow=none;html=1;rounded=0;entryX=0;entryY=0.5;entryDx=0;entryDy=0;exitX=1;exitY=0.5;exitDx=0;exitDy=0;" edge="1" parent="1" source="ajqtqU7_ZfUQvldOCHn7-102" target="ajqtqU7_ZfUQvldOCHn7-103">
          <mxGeometry width="50" height="50" relative="1" as="geometry">
            <mxPoint x="935" y="320" as="sourcePoint" />
            <mxPoint x="985" y="270" as="targetPoint" />
          </mxGeometry>
        </mxCell>
        <mxCell id="ajqtqU7_ZfUQvldOCHn7-111" value="" style="endArrow=none;html=1;rounded=0;entryX=0;entryY=0.5;entryDx=0;entryDy=0;exitX=1;exitY=0.5;exitDx=0;exitDy=0;" edge="1" parent="1" source="ajqtqU7_ZfUQvldOCHn7-102" target="ajqtqU7_ZfUQvldOCHn7-104">
          <mxGeometry width="50" height="50" relative="1" as="geometry">
            <mxPoint x="935" y="320" as="sourcePoint" />
            <mxPoint x="985" y="270" as="targetPoint" />
          </mxGeometry>
        </mxCell>
        <mxCell id="ajqtqU7_ZfUQvldOCHn7-112" value="" style="endArrow=none;html=1;rounded=0;entryX=0;entryY=0.5;entryDx=0;entryDy=0;exitX=1;exitY=0.5;exitDx=0;exitDy=0;" edge="1" parent="1" source="ajqtqU7_ZfUQvldOCHn7-102" target="ajqtqU7_ZfUQvldOCHn7-105">
          <mxGeometry width="50" height="50" relative="1" as="geometry">
            <mxPoint x="935" y="320" as="sourcePoint" />
            <mxPoint x="985" y="270" as="targetPoint" />
          </mxGeometry>
        </mxCell>
        <mxCell id="ajqtqU7_ZfUQvldOCHn7-113" value="" style="endArrow=none;html=1;rounded=0;entryX=0;entryY=0.5;entryDx=0;entryDy=0;exitX=1;exitY=0.5;exitDx=0;exitDy=0;" edge="1" parent="1" source="ajqtqU7_ZfUQvldOCHn7-102" target="ajqtqU7_ZfUQvldOCHn7-106">
          <mxGeometry width="50" height="50" relative="1" as="geometry">
            <mxPoint x="935" y="320" as="sourcePoint" />
            <mxPoint x="985" y="270" as="targetPoint" />
          </mxGeometry>
        </mxCell>
        <mxCell id="ajqtqU7_ZfUQvldOCHn7-114" value="" style="endArrow=none;html=1;rounded=0;entryX=0;entryY=0.5;entryDx=0;entryDy=0;exitX=1;exitY=0.5;exitDx=0;exitDy=0;" edge="1" parent="1" source="ajqtqU7_ZfUQvldOCHn7-102" target="ajqtqU7_ZfUQvldOCHn7-107">
          <mxGeometry width="50" height="50" relative="1" as="geometry">
            <mxPoint x="935" y="320" as="sourcePoint" />
            <mxPoint x="985" y="270" as="targetPoint" />
          </mxGeometry>
        </mxCell>
        <mxCell id="ajqtqU7_ZfUQvldOCHn7-115" value="" style="endArrow=none;html=1;rounded=0;entryX=0;entryY=0.5;entryDx=0;entryDy=0;exitX=1;exitY=0.5;exitDx=0;exitDy=0;" edge="1" parent="1" source="ajqtqU7_ZfUQvldOCHn7-102" target="ajqtqU7_ZfUQvldOCHn7-108">
          <mxGeometry width="50" height="50" relative="1" as="geometry">
            <mxPoint x="935" y="320" as="sourcePoint" />
            <mxPoint x="985" y="270" as="targetPoint" />
          </mxGeometry>
        </mxCell>
        <mxCell id="ajqtqU7_ZfUQvldOCHn7-116" value="" style="endArrow=none;html=1;rounded=0;entryX=0;entryY=0.5;entryDx=0;entryDy=0;exitX=1;exitY=0.5;exitDx=0;exitDy=0;" edge="1" parent="1" source="ajqtqU7_ZfUQvldOCHn7-102" target="ajqtqU7_ZfUQvldOCHn7-109">
          <mxGeometry width="50" height="50" relative="1" as="geometry">
            <mxPoint x="935" y="320" as="sourcePoint" />
            <mxPoint x="985" y="270" as="targetPoint" />
          </mxGeometry>
        </mxCell>
        <mxCell id="ajqtqU7_ZfUQvldOCHn7-145" style="shape=connector;rounded=0;orthogonalLoop=1;jettySize=auto;html=1;exitX=0.5;exitY=0;exitDx=0;exitDy=0;entryX=0.5;entryY=1;entryDx=0;entryDy=0;labelBackgroundColor=default;strokeColor=default;fontFamily=Helvetica;fontSize=12;fontColor=default;endArrow=none;endFill=0;" edge="1" parent="1" source="ajqtqU7_ZfUQvldOCHn7-118" target="ajqtqU7_ZfUQvldOCHn7-135">
          <mxGeometry relative="1" as="geometry" />
        </mxCell>
        <mxCell id="ajqtqU7_ZfUQvldOCHn7-118" value="id" style="ellipse;whiteSpace=wrap;html=1;align=center;fontStyle=4;" vertex="1" parent="1">
          <mxGeometry x="665" y="423.5" width="70" height="40" as="geometry" />
        </mxCell>
        <mxCell id="ajqtqU7_ZfUQvldOCHn7-148" style="edgeStyle=none;shape=connector;rounded=0;orthogonalLoop=1;jettySize=auto;html=1;exitX=0.5;exitY=0;exitDx=0;exitDy=0;entryX=0.5;entryY=1;entryDx=0;entryDy=0;labelBackgroundColor=default;strokeColor=default;fontFamily=Helvetica;fontSize=12;fontColor=default;endArrow=none;endFill=0;" edge="1" parent="1" source="ajqtqU7_ZfUQvldOCHn7-121" target="ajqtqU7_ZfUQvldOCHn7-135">
          <mxGeometry relative="1" as="geometry" />
        </mxCell>
        <mxCell id="ajqtqU7_ZfUQvldOCHn7-121" value="name" style="ellipse;whiteSpace=wrap;html=1;" vertex="1" parent="1">
          <mxGeometry x="755" y="423.5" width="70" height="40" as="geometry" />
        </mxCell>
        <mxCell id="ajqtqU7_ZfUQvldOCHn7-149" style="edgeStyle=none;shape=connector;rounded=0;orthogonalLoop=1;jettySize=auto;html=1;exitX=0.5;exitY=0;exitDx=0;exitDy=0;labelBackgroundColor=default;strokeColor=default;fontFamily=Helvetica;fontSize=12;fontColor=default;endArrow=none;endFill=0;entryX=0.5;entryY=1;entryDx=0;entryDy=0;" edge="1" parent="1" source="ajqtqU7_ZfUQvldOCHn7-122" target="ajqtqU7_ZfUQvldOCHn7-135">
          <mxGeometry relative="1" as="geometry">
            <mxPoint x="995" y="528.4999999999998" as="targetPoint" />
          </mxGeometry>
        </mxCell>
        <mxCell id="ajqtqU7_ZfUQvldOCHn7-122" value="price" style="ellipse;whiteSpace=wrap;html=1;" vertex="1" parent="1">
          <mxGeometry x="835" y="423.5" width="70" height="40" as="geometry" />
        </mxCell>
        <mxCell id="ajqtqU7_ZfUQvldOCHn7-150" style="edgeStyle=none;shape=connector;rounded=0;orthogonalLoop=1;jettySize=auto;html=1;exitX=0.5;exitY=0;exitDx=0;exitDy=0;entryX=0.5;entryY=1;entryDx=0;entryDy=0;labelBackgroundColor=default;strokeColor=default;fontFamily=Helvetica;fontSize=12;fontColor=default;endArrow=none;endFill=0;" edge="1" parent="1" source="ajqtqU7_ZfUQvldOCHn7-123" target="ajqtqU7_ZfUQvldOCHn7-135">
          <mxGeometry relative="1" as="geometry" />
        </mxCell>
        <mxCell id="ajqtqU7_ZfUQvldOCHn7-123" value="copies" style="ellipse;whiteSpace=wrap;html=1;" vertex="1" parent="1">
          <mxGeometry x="915" y="423.5" width="70" height="40" as="geometry" />
        </mxCell>
        <mxCell id="ajqtqU7_ZfUQvldOCHn7-151" style="edgeStyle=none;shape=connector;rounded=0;orthogonalLoop=1;jettySize=auto;html=1;exitX=0.5;exitY=0;exitDx=0;exitDy=0;entryX=0.5;entryY=1;entryDx=0;entryDy=0;labelBackgroundColor=default;strokeColor=default;fontFamily=Helvetica;fontSize=12;fontColor=default;endArrow=none;endFill=0;" edge="1" parent="1" source="ajqtqU7_ZfUQvldOCHn7-124" target="ajqtqU7_ZfUQvldOCHn7-135">
          <mxGeometry relative="1" as="geometry" />
        </mxCell>
        <mxCell id="ajqtqU7_ZfUQvldOCHn7-124" value="sort" style="ellipse;whiteSpace=wrap;html=1;" vertex="1" parent="1">
          <mxGeometry x="1015" y="423.5" width="70" height="40" as="geometry" />
        </mxCell>
        <mxCell id="ajqtqU7_ZfUQvldOCHn7-164" style="edgeStyle=none;shape=connector;rounded=0;orthogonalLoop=1;jettySize=auto;html=1;exitX=1;exitY=0.5;exitDx=0;exitDy=0;labelBackgroundColor=default;strokeColor=default;fontFamily=Helvetica;fontSize=12;fontColor=default;endArrow=none;endFill=0;" edge="1" parent="1" source="ajqtqU7_ZfUQvldOCHn7-135" target="ajqtqU7_ZfUQvldOCHn7-138">
          <mxGeometry relative="1" as="geometry" />
        </mxCell>
        <mxCell id="ajqtqU7_ZfUQvldOCHn7-183" style="edgeStyle=none;shape=connector;rounded=0;orthogonalLoop=1;jettySize=auto;html=1;exitX=0.5;exitY=0;exitDx=0;exitDy=0;entryX=0.5;entryY=1;entryDx=0;entryDy=0;labelBackgroundColor=default;strokeColor=default;fontFamily=Helvetica;fontSize=12;fontColor=default;endArrow=none;endFill=0;" edge="1" parent="1" source="ajqtqU7_ZfUQvldOCHn7-135" target="ajqtqU7_ZfUQvldOCHn7-54">
          <mxGeometry relative="1" as="geometry" />
        </mxCell>
        <mxCell id="ajqtqU7_ZfUQvldOCHn7-135" value="setmeal_dish" style="rhombus;whiteSpace=wrap;html=1;" vertex="1" parent="1">
          <mxGeometry x="785" y="300" width="130" height="80" as="geometry" />
        </mxCell>
        <mxCell id="ajqtqU7_ZfUQvldOCHn7-136" value="" style="endArrow=none;html=1;rounded=0;entryX=1;entryY=0.5;entryDx=0;entryDy=0;exitX=0;exitY=0.5;exitDx=0;exitDy=0;" edge="1" parent="1" source="ajqtqU7_ZfUQvldOCHn7-138" target="ajqtqU7_ZfUQvldOCHn7-135">
          <mxGeometry width="50" height="50" relative="1" as="geometry">
            <mxPoint x="805" y="318.5" as="sourcePoint" />
            <mxPoint x="855" y="268.5" as="targetPoint" />
          </mxGeometry>
        </mxCell>
        <mxCell id="ajqtqU7_ZfUQvldOCHn7-142" value="" style="endArrow=none;html=1;rounded=0;entryX=1;entryY=0.5;entryDx=0;entryDy=0;exitX=0;exitY=0.5;exitDx=0;exitDy=0;" edge="1" parent="1" source="ajqtqU7_ZfUQvldOCHn7-102">
          <mxGeometry width="50" height="50" relative="1" as="geometry">
            <mxPoint x="1085" y="340" as="sourcePoint" />
            <mxPoint x="1070" y="340" as="targetPoint" />
          </mxGeometry>
        </mxCell>
        <mxCell id="ajqtqU7_ZfUQvldOCHn7-138" value="n" style="text;html=1;align=center;verticalAlign=middle;resizable=0;points=[];autosize=1;strokeColor=none;fillColor=none;" vertex="1" parent="1">
          <mxGeometry x="1010" y="323" width="30" height="30" as="geometry" />
        </mxCell>
        <mxCell id="ajqtqU7_ZfUQvldOCHn7-173" value="employee:(id,name,username,password,phone,sex,id_number,status)" style="text;html=1;align=center;verticalAlign=middle;resizable=0;points=[];autosize=1;strokeColor=none;fillColor=none;fontSize=17;fontFamily=Helvetica;fontColor=default;" vertex="1" parent="1">
          <mxGeometry x="85" y="367.5" width="550" height="30" as="geometry" />
        </mxCell>
        <mxCell id="ajqtqU7_ZfUQvldOCHn7-174" value="&lt;font style=&quot;font-size: 18px;&quot;&gt;category:(id,name,sort,type)&lt;/font&gt;" style="text;html=1;align=center;verticalAlign=middle;resizable=0;points=[];autosize=1;strokeColor=none;fillColor=none;fontSize=12;fontFamily=Helvetica;fontColor=default;" vertex="1" parent="1">
          <mxGeometry x="85" y="397.5" width="250" height="40" as="geometry" />
        </mxCell>
        <mxCell id="ajqtqU7_ZfUQvldOCHn7-175" value="&lt;font style=&quot;font-size: 17px;&quot;&gt;dish:(id,category_id,status,description,image,price,name,sort)&lt;/font&gt;" style="text;html=1;align=center;verticalAlign=middle;resizable=0;points=[];autosize=1;strokeColor=none;fillColor=none;fontSize=12;fontFamily=Helvetica;fontColor=default;" vertex="1" parent="1">
          <mxGeometry x="85" y="437.5" width="490" height="30" as="geometry" />
        </mxCell>
        <mxCell id="ajqtqU7_ZfUQvldOCHn7-176" value="&lt;font style=&quot;font-size: 17px;&quot;&gt;dish_flavor:(id,dish_id,name,value)&lt;/font&gt;" style="text;html=1;align=center;verticalAlign=middle;resizable=0;points=[];autosize=1;strokeColor=none;fillColor=none;fontSize=12;fontFamily=Helvetica;fontColor=default;" vertex="1" parent="1">
          <mxGeometry x="85" y="467.5" width="290" height="30" as="geometry" />
        </mxCell>
        <mxCell id="ajqtqU7_ZfUQvldOCHn7-177" value="&lt;font style=&quot;font-size: 17px;&quot;&gt;setmeal_dish:(id,dish_id,setmeal_id,name,price,copies,sort)&lt;/font&gt;" style="text;html=1;align=center;verticalAlign=middle;resizable=0;points=[];autosize=1;strokeColor=none;fillColor=none;fontSize=12;fontFamily=Helvetica;fontColor=default;" vertex="1" parent="1">
          <mxGeometry x="85" y="497.5" width="470" height="30" as="geometry" />
        </mxCell>
        <mxCell id="ajqtqU7_ZfUQvldOCHn7-178" value="&lt;font style=&quot;font-size: 17px;&quot;&gt;setmeal:(id,cetagory_id,name,price,status,description,image)&lt;/font&gt;" style="text;html=1;align=center;verticalAlign=middle;resizable=0;points=[];autosize=1;strokeColor=none;fillColor=none;fontSize=12;fontFamily=Helvetica;fontColor=default;" vertex="1" parent="1">
          <mxGeometry x="85" y="532.5" width="480" height="30" as="geometry" />
        </mxCell>
        <mxCell id="ajqtqU7_ZfUQvldOCHn7-184" value="m" style="text;html=1;align=center;verticalAlign=middle;resizable=0;points=[];autosize=1;strokeColor=none;fillColor=none;fontSize=12;fontFamily=Helvetica;fontColor=default;" vertex="1" parent="1">
          <mxGeometry x="855" y="220" width="30" height="30" as="geometry" />
        </mxCell>
        <mxCell id="ajqtqU7_ZfUQvldOCHn7-187" value="1" style="text;html=1;align=center;verticalAlign=middle;resizable=0;points=[];autosize=1;strokeColor=none;fillColor=none;fontSize=12;fontFamily=Helvetica;fontColor=default;" vertex="1" parent="1">
          <mxGeometry x="1045" y="118" width="30" height="30" as="geometry" />
        </mxCell>
        <mxCell id="ajqtqU7_ZfUQvldOCHn7-188" value="n" style="text;html=1;align=center;verticalAlign=middle;resizable=0;points=[];autosize=1;strokeColor=none;fillColor=none;fontSize=12;fontFamily=Helvetica;fontColor=default;" vertex="1" parent="1">
          <mxGeometry x="935" y="118" width="30" height="30" as="geometry" />
        </mxCell>
        <mxCell id="ajqtqU7_ZfUQvldOCHn7-190" style="edgeStyle=none;shape=connector;rounded=0;orthogonalLoop=1;jettySize=auto;html=1;exitX=0.5;exitY=1;exitDx=0;exitDy=0;entryX=0.5;entryY=0;entryDx=0;entryDy=0;labelBackgroundColor=default;strokeColor=default;fontFamily=Helvetica;fontSize=12;fontColor=default;endArrow=none;endFill=0;" edge="1" parent="1" source="ajqtqU7_ZfUQvldOCHn7-189" target="ajqtqU7_ZfUQvldOCHn7-102">
          <mxGeometry relative="1" as="geometry" />
        </mxCell>
        <mxCell id="ajqtqU7_ZfUQvldOCHn7-191" style="edgeStyle=none;shape=connector;rounded=0;orthogonalLoop=1;jettySize=auto;html=1;exitX=0.5;exitY=0;exitDx=0;exitDy=0;entryX=0.5;entryY=1;entryDx=0;entryDy=0;labelBackgroundColor=default;strokeColor=default;fontFamily=Helvetica;fontSize=12;fontColor=default;endArrow=none;endFill=0;" edge="1" parent="1" source="ajqtqU7_ZfUQvldOCHn7-189" target="ajqtqU7_ZfUQvldOCHn7-86">
          <mxGeometry relative="1" as="geometry" />
        </mxCell>
        <mxCell id="ajqtqU7_ZfUQvldOCHn7-189" value="种类2" style="rhombus;whiteSpace=wrap;html=1;" vertex="1" parent="1">
          <mxGeometry x="1125" y="205" width="70" height="60" as="geometry" />
        </mxCell>
        <mxCell id="ajqtqU7_ZfUQvldOCHn7-192" value="1" style="text;html=1;align=center;verticalAlign=middle;resizable=0;points=[];autosize=1;strokeColor=none;fillColor=none;fontSize=12;fontFamily=Helvetica;fontColor=default;" vertex="1" parent="1">
          <mxGeometry x="1165" y="178" width="30" height="30" as="geometry" />
        </mxCell>
        <mxCell id="ajqtqU7_ZfUQvldOCHn7-193" value="n" style="text;html=1;align=center;verticalAlign=middle;resizable=0;points=[];autosize=1;strokeColor=none;fillColor=none;fontSize=12;fontFamily=Helvetica;fontColor=default;" vertex="1" parent="1">
          <mxGeometry x="1165" y="268" width="30" height="30" as="geometry" />
        </mxCell>
        <mxCell id="ajqtqU7_ZfUQvldOCHn7-196" value="1" style="text;html=1;align=center;verticalAlign=middle;resizable=0;points=[];autosize=1;strokeColor=none;fillColor=none;fontSize=12;fontFamily=Helvetica;fontColor=default;" vertex="1" parent="1">
          <mxGeometry x="720" y="110" width="30" height="30" as="geometry" />
        </mxCell>
        <mxCell id="ajqtqU7_ZfUQvldOCHn7-198" value="n" style="text;html=1;align=center;verticalAlign=middle;resizable=0;points=[];autosize=1;strokeColor=none;fillColor=none;fontSize=12;fontFamily=Helvetica;fontColor=default;" vertex="1" parent="1">
          <mxGeometry x="615" y="110" width="30" height="30" as="geometry" />
        </mxCell>
      </root>
    </mxGraphModel>
  </diagram>
</mxfile>
